<svg xmlns="http://www.w3.org/2000/svg" version="1.1" xmlns:xlink="http://www.w3.org/1999/xlink" xmlns:svgjs="http://svgjs.com/svgjs" height="142.12000427246096" width="257.44000244140625"><defs id="SvgjsDefs1105"></defs><g id="SvgjsG1106" rel="mainfill" name="main_text" xmlns:name="main_text" transform="translate(-1.3700000047683716,-103.59999694824216)" fill="rgb(173, 2, 1)"><path d="M1.37 231.74Q1.37 230.18 1.76 228.81Q2.15 227.43 3.09 226.41Q4.03 225.40 5.63 224.80Q7.23 224.20 9.66 224.20L10.48 224.20Q12.04 224.20 13.51 224.40Q14.97 224.59 16.39 224.96L16.39 228.69Q15.59 228.46 14.78 228.30Q13.96 228.14 13.17 228.04Q12.38 227.94 11.66 227.89Q10.94 227.84 10.37 227.84Q8.58 227.84 7.61 228.18Q6.64 228.51 6.19 229.10Q5.75 229.70 5.67 230.52Q5.59 231.35 5.59 232.33Q5.59 233.32 5.67 234.14Q5.75 234.96 6.19 235.57Q6.64 236.18 7.61 236.51Q8.58 236.84 10.37 236.84Q10.94 236.84 11.66 236.80Q12.38 236.75 13.17 236.65Q13.96 236.54 14.78 236.37Q15.59 236.20 16.39 235.97L16.39 239.73Q14.97 240.07 13.51 240.26Q12.04 240.46 10.48 240.46L9.66 240.46Q7.23 240.46 5.63 239.86Q4.03 239.27 3.09 238.25Q2.15 237.23 1.76 235.86Q1.37 234.48 1.37 232.93L1.37 231.74ZM21.20 242.52L18.45 244.12L17.53 244.12L17.53 236.34L19.27 236.34Q19.76 236.04 19.93 235.33Q20.10 234.62 20.14 233.48L20.60 224.66L34.79 224.66L34.79 236.34L37.08 236.34L37.08 242.52L34.34 244.12L33.42 244.12L33.42 240L21.20 240L21.20 242.52M30.67 236.34L30.67 228.33L24.40 228.33L24.15 233.29Q24.10 234.21 23.98 234.96Q23.85 235.72 23.62 236.34L30.67 236.34ZM48.99 224.66L48.99 230.61L51.62 230.61L56.61 224.66L60.64 224.66L60.64 225.58L54.99 232.33L60.64 239.08L60.64 240L56.61 240L51.80 234.28L48.99 234.28L48.99 240L44.87 240L44.87 224.66L48.99 224.66ZM76.48 240L75.56 240L74.33 239.29Q73.16 239.89 71.90 240.17Q70.64 240.46 69.06 240.46Q67.21 240.46 65.98 240.15Q64.76 239.84 64.03 239.30Q63.29 238.76 63.00 238.07Q62.70 237.37 62.70 236.61L62.70 236.38Q62.70 235.67 63.01 235.03Q63.32 234.39 64.06 233.91Q64.81 233.43 66.01 233.16Q67.21 232.88 68.99 232.88Q71.24 232.88 72.82 233.32Q72.79 232.86 72.69 232.50Q72.59 232.15 72.25 231.91Q71.90 231.67 71.23 231.54Q70.55 231.42 69.43 231.42Q68.81 231.42 68.10 231.46Q67.39 231.51 66.67 231.59Q65.95 231.67 65.25 231.80Q64.55 231.94 63.96 232.10L63.96 228.67Q64.55 228.53 65.25 228.43Q65.95 228.33 66.69 228.25Q67.44 228.17 68.16 228.13Q68.88 228.10 69.54 228.10Q71.47 228.10 72.78 228.43Q74.10 228.76 74.92 229.39Q75.75 230.02 76.11 230.96Q76.48 231.90 76.48 233.13L76.48 240M69.45 237.60Q71.26 237.60 72.82 237.12L72.82 236.04Q72.04 235.83 71.17 235.73Q70.30 235.63 69.22 235.63Q68.19 235.63 67.62 235.72Q67.05 235.81 66.77 235.96Q66.50 236.11 66.43 236.29Q66.36 236.47 66.36 236.63Q66.36 236.84 66.43 237.01Q66.50 237.18 66.81 237.32Q67.12 237.46 67.74 237.53Q68.35 237.60 69.45 237.60ZM92.66 228.55L92.66 240L89.00 240L89.00 231.76L83.00 231.76L83.00 240L79.34 240L79.34 228.55L92.66 228.55ZM109.40 228.55L109.40 240L105.74 240L105.74 232.95L99.30 240L95.64 240L95.64 228.55L99.30 228.55L99.30 235.60L105.74 228.55L109.40 228.55ZM115.69 240L115.69 231.87L111.34 231.87L111.34 228.55L123.73 228.55L123.73 231.87L119.36 231.87L119.36 240L115.69 240ZM139.34 240L138.42 240L137.19 239.29Q136.02 239.89 134.76 240.17Q133.50 240.46 131.92 240.46Q130.07 240.46 128.84 240.15Q127.62 239.84 126.89 239.30Q126.15 238.76 125.86 238.07Q125.56 237.37 125.56 236.61L125.56 236.38Q125.56 235.67 125.87 235.03Q126.18 234.39 126.92 233.91Q127.67 233.43 128.87 233.16Q130.07 232.88 131.85 232.88Q134.10 232.88 135.68 233.32Q135.65 232.86 135.55 232.50Q135.45 232.15 135.10 231.91Q134.76 231.67 134.09 231.54Q133.41 231.42 132.29 231.42Q131.67 231.42 130.96 231.46Q130.25 231.51 129.53 231.59Q128.81 231.67 128.11 231.80Q127.41 231.94 126.82 232.10L126.82 228.67Q127.41 228.53 128.11 228.43Q128.81 228.33 129.55 228.25Q130.30 228.17 131.02 228.13Q131.74 228.10 132.40 228.10Q134.33 228.10 135.64 228.43Q136.96 228.76 137.78 229.39Q138.61 230.02 138.97 230.96Q139.34 231.90 139.34 233.13L139.34 240M132.31 237.60Q134.12 237.60 135.68 237.12L135.68 236.04Q134.90 235.83 134.03 235.73Q133.16 235.63 132.08 235.63Q131.05 235.63 130.48 235.72Q129.91 235.81 129.63 235.96Q129.36 236.11 129.29 236.29Q129.22 236.47 129.22 236.63Q129.22 236.84 129.29 237.01Q129.36 237.18 129.67 237.32Q129.98 237.46 130.60 237.53Q131.21 237.60 132.31 237.60ZM142.20 236.96Q143.03 236.96 143.30 236.55Q143.57 236.15 143.62 235.40L144.03 228.55L155.62 228.55L155.62 240L151.95 240L151.95 231.85L147.40 231.85L147.17 235.81Q147.10 236.89 146.87 237.72Q146.64 238.56 146.14 239.12Q145.63 239.68 144.85 239.97Q144.06 240.25 142.86 240.25Q142.41 240.25 141.93 240.21Q141.45 240.16 141.06 240.05L141.06 236.89Q141.31 236.93 141.63 236.94Q141.95 236.96 142.20 236.96ZM164.43 231.74Q164.43 230.18 164.82 228.81Q165.21 227.43 166.15 226.41Q167.08 225.40 168.69 224.80Q170.29 224.20 172.72 224.20L173.54 224.20Q175.10 224.20 176.56 224.40Q178.03 224.59 179.45 224.96L179.45 228.69Q178.64 228.46 177.83 228.30Q177.02 228.14 176.23 228.04Q175.44 227.94 174.72 227.89Q174.00 227.84 173.42 227.84Q171.64 227.84 170.67 228.18Q169.69 228.51 169.25 229.10Q168.80 229.70 168.72 230.52Q168.64 231.35 168.64 232.33Q168.64 233.32 168.72 234.14Q168.80 234.96 169.25 235.57Q169.69 236.18 170.67 236.51Q171.64 236.84 173.42 236.84Q174.00 236.84 174.72 236.80Q175.44 236.75 176.23 236.65Q177.02 236.54 177.83 236.37Q178.64 236.20 179.45 235.97L179.45 239.73Q178.03 240.07 176.56 240.26Q175.10 240.46 173.54 240.46L172.72 240.46Q170.29 240.46 168.69 239.86Q167.08 239.27 166.15 238.25Q165.21 237.23 164.82 235.86Q164.43 234.48 164.43 232.93L164.43 231.74ZM188.28 240.46Q186.36 240.46 185.10 240.01Q183.84 239.57 183.09 238.79Q182.33 238.01 182.03 236.97Q181.73 235.93 181.73 234.73L181.73 233.82Q181.73 232.63 182.03 231.59Q182.33 230.55 183.09 229.77Q183.84 228.99 185.10 228.54Q186.36 228.10 188.28 228.10L188.92 228.10Q190.87 228.10 192.10 228.38Q193.34 228.67 194.03 229.17Q194.71 229.68 194.97 230.34Q195.22 231.00 195.22 231.76L195.22 231.99Q195.22 232.67 195.05 233.29Q194.87 233.91 194.23 234.39Q193.59 234.87 192.34 235.15Q191.10 235.42 188.95 235.42Q187.92 235.42 187.05 235.33Q186.18 235.24 185.40 235.01Q185.42 235.49 185.56 235.89Q185.69 236.29 186.07 236.57Q186.45 236.84 187.14 236.99Q187.82 237.14 188.97 237.14Q189.52 237.14 190.19 237.09Q190.87 237.05 191.59 236.97Q192.31 236.89 193.01 236.76Q193.71 236.63 194.30 236.45L194.30 239.89Q193.71 240.02 193.01 240.13Q192.31 240.23 191.57 240.31Q190.82 240.39 190.09 240.42Q189.36 240.46 188.72 240.46L188.28 240.46M188.95 230.96Q188.03 230.96 187.41 231.06Q186.79 231.16 186.40 231.37Q186.02 231.58 185.81 231.87Q185.60 232.17 185.51 232.56Q186.18 232.74 186.94 232.82Q187.71 232.90 188.72 232.90Q189.72 232.90 190.30 232.82Q190.87 232.74 191.14 232.62Q191.42 232.49 191.49 232.34Q191.55 232.19 191.55 232.03Q191.55 231.87 191.50 231.68Q191.44 231.48 191.18 231.32Q190.91 231.16 190.39 231.06Q189.86 230.96 188.95 230.96ZM198.88 228.55L200.12 229.29Q201.22 228.69 202.45 228.39Q203.69 228.10 205.20 228.10Q207.12 228.10 208.38 228.54Q209.64 228.99 210.39 229.77Q211.15 230.55 211.45 231.59Q211.75 232.63 211.75 233.82L211.75 234.73Q211.75 235.93 211.45 236.97Q211.15 238.01 210.39 238.79Q209.64 239.57 208.38 240.01Q207.12 240.46 205.20 240.46Q204.17 240.46 203.30 240.32Q202.43 240.18 201.63 239.93L201.63 245.72L197.96 245.72L197.96 228.55L198.88 228.55M204.99 231.42Q204.03 231.42 203.21 231.54Q202.38 231.67 201.63 231.92L201.63 236.66Q203.14 237.14 204.99 237.14Q206.16 237.14 206.78 236.90Q207.40 236.66 207.69 236.27Q207.99 235.88 208.04 235.35Q208.08 234.83 208.08 234.28Q208.08 233.73 208.04 233.20Q207.99 232.67 207.69 232.29Q207.40 231.90 206.78 231.66Q206.16 231.42 204.99 231.42ZM214.61 228.55Q216.19 228.37 217.91 228.28Q219.64 228.19 221.31 228.19L221.82 228.19Q223.35 228.19 224.36 228.43Q225.37 228.67 225.97 229.08Q226.58 229.49 226.82 230.04Q227.06 230.59 227.06 231.21L227.06 231.58Q227.06 232.45 226.57 233.14Q226.08 233.84 224.79 234.19Q226.28 234.55 226.85 235.31Q227.43 236.06 227.43 236.98L227.43 237.34Q227.43 237.96 227.16 238.51Q226.90 239.06 226.27 239.47Q225.64 239.89 224.55 240.13Q223.47 240.37 221.82 240.37L221.31 240.37Q219.64 240.37 217.91 240.27Q216.19 240.18 214.61 240L214.61 228.55M218.27 235.51L218.27 237.28Q219.09 237.37 219.95 237.40Q220.81 237.44 221.43 237.44Q222.28 237.44 222.76 237.36Q223.24 237.28 223.47 237.15Q223.69 237.02 223.75 236.86Q223.81 236.70 223.81 236.52Q223.81 236.31 223.76 236.13Q223.72 235.95 223.48 235.81Q223.24 235.67 222.69 235.59Q222.14 235.51 221.15 235.51L218.27 235.51M221.38 231.12Q220.79 231.12 219.93 231.14Q219.07 231.16 218.27 231.28L218.27 233.04L221.15 233.04Q222.00 233.04 222.47 232.96Q222.94 232.88 223.16 232.74Q223.37 232.61 223.41 232.42Q223.44 232.24 223.44 232.03Q223.44 231.85 223.40 231.69Q223.35 231.53 223.14 231.40Q222.94 231.28 222.53 231.20Q222.11 231.12 221.38 231.12ZM244.04 228.55L244.04 240L240.38 240L240.38 232.95L233.95 240L230.29 240L230.29 228.55L233.95 228.55L233.95 235.60L240.38 228.55L244.04 228.55ZM246.91 233.82Q246.91 232.63 247.20 231.59Q247.50 230.55 248.26 229.77Q249.01 228.99 250.27 228.54Q251.53 228.10 253.45 228.10L254.09 228.10Q255.33 228.10 256.51 228.25Q257.69 228.39 258.81 228.67L258.81 232.08Q257.53 231.71 256.25 231.56Q254.96 231.42 254.00 231.42Q252.72 231.42 252.02 231.63Q251.32 231.85 251.00 232.23Q250.68 232.61 250.63 233.13Q250.57 233.66 250.57 234.28Q250.57 234.90 250.63 235.42Q250.68 235.95 251.00 236.33Q251.32 236.70 252.02 236.92Q252.72 237.14 254.00 237.14Q254.96 237.14 256.25 236.99Q257.53 236.84 258.81 236.47L258.81 239.89Q257.69 240.16 256.51 240.31Q255.33 240.46 254.09 240.46L253.45 240.46Q251.53 240.46 250.27 240.01Q249.01 239.57 248.26 238.79Q247.50 238.01 247.20 236.97Q246.91 235.93 246.91 234.73L246.91 233.82Z" fill="rgb(173, 2, 1)" style="fill: rgb(173, 2, 1);"></path></g><g id="SvgjsG1107" rel="mainfill" name="symbol" xmlns:name="symbol_mainfill" transform="translate(58.32000122070311,-21.999999999999993) scale(2.2)" fill="rgb(173, 2, 1)"><metadata><sfw xmlns="http://ns.adobe.com/SaveForWeb/1.0/"><slices></slices><slicesourcebounds height="16384" width="16389" x="-8165" y="-8160" bottomleftorigin="true"></slicesourcebounds></sfw></metadata><g fill="rgb(173, 2, 1)"><path d="M54,54V12c0-1.104-0.896-2-2-2H36c-1.104,0-2,0.896-2,2v26h-4V20c0-1.104-0.896-2-2-2H12c-1.104,0-2,0.896-2,2v34   c-1.104,0-2,0.896-2,2s0.896,2,2,2h44c1.104,0,2-0.896,2-2S55.104,54,54,54z M47,16c0-0.552,0.447-1,1-1s1,0.448,1,1v4   c0,0.552-0.447,1-1,1s-1-0.448-1-1V16z M47,24c0-0.552,0.447-1,1-1s1,0.448,1,1v4c0,0.552-0.447,1-1,1s-1-0.448-1-1V24z M47,32   c0-0.552,0.447-1,1-1s1,0.448,1,1v4c0,0.553-0.447,1-1,1s-1-0.447-1-1V32z M47,40c0-0.553,0.447-1,1-1s1,0.447,1,1v4   c0,0.553-0.447,1-1,1s-1-0.447-1-1V40z M47,48c0-0.553,0.447-1,1-1s1,0.447,1,1v4c0,0.553-0.447,1-1,1s-1-0.447-1-1V48z M43,16   c0-0.552,0.447-1,1-1s1,0.448,1,1v4c0,0.552-0.447,1-1,1s-1-0.448-1-1V16z M43,24c0-0.552,0.447-1,1-1s1,0.448,1,1v4   c0,0.552-0.447,1-1,1s-1-0.448-1-1V24z M43,32c0-0.552,0.447-1,1-1s1,0.448,1,1v4c0,0.553-0.447,1-1,1s-1-0.447-1-1V32z M43,40   c0-0.553,0.447-1,1-1s1,0.447,1,1v4c0,0.553-0.447,1-1,1s-1-0.447-1-1V40z M43,48c0-0.553,0.447-1,1-1s1,0.447,1,1v4   c0,0.553-0.447,1-1,1s-1-0.447-1-1V48z M39,16c0-0.552,0.447-1,1-1s1,0.448,1,1v4c0,0.552-0.447,1-1,1s-1-0.448-1-1V16z M39,24   c0-0.552,0.447-1,1-1s1,0.448,1,1v4c0,0.552-0.447,1-1,1s-1-0.448-1-1V24z M39,32c0-0.552,0.447-1,1-1s1,0.448,1,1v4   c0,0.553-0.447,1-1,1s-1-0.447-1-1V32z M28,43h8c0.553,0,1,0.447,1,1s-0.447,1-1,1h-8c-0.552,0-1-0.447-1-1S27.448,43,28,43z    M28,47h8c0.553,0,1,0.447,1,1s-0.447,1-1,1h-8c-0.552,0-1-0.447-1-1S27.448,47,28,47z M28,51h8c0.553,0,1,0.447,1,1s-0.447,1-1,1   h-8c-0.552,0-1-0.447-1-1S27.448,51,28,51z M16,23h8c0.552,0,1,0.448,1,1s-0.448,1-1,1h-8c-0.552,0-1-0.448-1-1S15.448,23,16,23z    M16,27h8c0.552,0,1,0.448,1,1s-0.448,1-1,1h-8c-0.552,0-1-0.448-1-1S15.448,27,16,27z M16,31h8c0.552,0,1,0.448,1,1s-0.448,1-1,1   h-8c-0.552,0-1-0.448-1-1S15.448,31,16,31z M16,35h8c0.552,0,1,0.447,1,1s-0.448,1-1,1h-8c-0.552,0-1-0.447-1-1S15.448,35,16,35z    M16,39h4c0.552,0,1,0.447,1,1s-0.448,1-1,1h-4c-0.552,0-1-0.447-1-1S15.448,39,16,39z M16,43h4c0.552,0,1,0.447,1,1s-0.448,1-1,1   h-4c-0.552,0-1-0.447-1-1S15.448,43,16,43z M16,47h4c0.552,0,1,0.447,1,1s-0.448,1-1,1h-4c-0.552,0-1-0.447-1-1S15.448,47,16,47z    M16,51h4c0.552,0,1,0.447,1,1s-0.448,1-1,1h-4c-0.552,0-1-0.447-1-1S15.448,51,16,51z" fill="rgb(173, 2, 1)" style="fill: rgb(173, 2, 1);"></path></g></g></svg>